<svg width="2065" height="990" xmlns="http://www.w3.org/2000/svg" xmlns:xlink="http://www.w3.org/1999/xlink" xml:space="preserve" overflow="hidden"><defs><clipPath id="clip0"><rect x="1160" y="743" width="2065" height="990"/></clipPath></defs><g clip-path="url(#clip0)" transform="translate(-1160 -743)"><rect x="1173" y="743" width="1028" height="989" fill="#FFFFFF"/><g><path d="M1283.5 1508.55 2150.5 1508.55M1283.5 1385.55 2150.5 1385.55M1283.5 1263.54 2150.5 1263.54M1283.5 1140.54 2150.5 1140.54M1283.5 1017.5 2150.5 1017.5" stroke="#E6E6E6" stroke-width="3.4375" stroke-linejoin="round" stroke-miterlimit="10" fill="none"/></g><g><path d="M1283.5 944.5 1283.5 1631.5M1370.55 944.5 1370.55 1631.5M1457.55 944.5 1457.55 1631.5M1543.55 944.5 1543.55 1631.5M1630.55 944.5 1630.55 1631.5M1717.56 944.5 1717.56 1631.5M1803.56 944.5 1803.56 1631.5M1890.56 944.5 1890.56 1631.5M1977.57 944.5 1977.57 1631.5M2063.57 944.5 2063.57 1631.5M2150.5 944.5 2150.5 1631.5" stroke="#F2F2F2" stroke-width="3.4375" stroke-linejoin="round" stroke-miterlimit="10" fill="none"/></g><g><rect x="1284" y="944" width="867" height="687" stroke="#C00000" stroke-width="8.02083" stroke-linejoin="round" stroke-miterlimit="10" fill="none"/></g><g><path d="M1283.5 1631.5 2150.5 1631.5" stroke="#C00000" stroke-width="3.4375" stroke-linejoin="round" stroke-miterlimit="10" fill="none" fill-rule="evenodd"/></g><g><path d="M1371 1169 1544.05 1150.04 1717.06 1140 1890.06 1154.04 2064 1166.04" stroke="#4874CB" stroke-width="10.3125" stroke-linecap="round" stroke-linejoin="round" stroke-miterlimit="10" fill="none"/></g><g><path d="M1359.24 1158 1381.24 1158 1381.24 1180 1359.24 1180Z" stroke="#4874CB" stroke-width="3.4375" stroke-linejoin="round" stroke-miterlimit="10" fill="#4874CB"/><path d="M1532.24 1139 1554.24 1139 1554.24 1161 1532.24 1161Z" stroke="#4874CB" stroke-width="3.4375" stroke-linejoin="round" stroke-miterlimit="10" fill="#4874CB"/><path d="M1706.24 1129 1728.24 1129 1728.24 1151 1706.24 1151Z" stroke="#4874CB" stroke-width="3.4375" stroke-linejoin="round" stroke-miterlimit="10" fill="#4874CB"/><path d="M1879.24 1143 1901.24 1143 1901.24 1165 1879.24 1165Z" stroke="#4874CB" stroke-width="3.4375" stroke-linejoin="round" stroke-miterlimit="10" fill="#4874CB"/><path d="M2052.24 1155 2074.24 1155 2074.24 1177 2052.24 1177Z" stroke="#4874CB" stroke-width="3.4375" stroke-linejoin="round" stroke-miterlimit="10" fill="#4874CB"/></g><g><path d="M1371 1487 1544.05 1451.05 1717.06 1438 1890.06 1458.05 2064 1486.05" stroke="#EE822F" stroke-width="10.3125" stroke-linecap="round" stroke-linejoin="round" stroke-miterlimit="10" fill="none"/></g><g><path d="M1381.24 1488C1381.24 1494.07 1376.32 1499 1370.24 1499 1364.17 1499 1359.24 1494.07 1359.24 1488 1359.24 1481.92 1364.17 1477 1370.24 1477 1376.32 1477 1381.24 1481.92 1381.24 1488Z" stroke="#EE822F" stroke-width="3.4375" stroke-linejoin="round" stroke-miterlimit="10" fill="#EE822F"/><path d="M1554.24 1451C1554.24 1457.07 1549.32 1462 1543.24 1462 1537.17 1462 1532.24 1457.07 1532.24 1451 1532.24 1444.92 1537.17 1440 1543.24 1440 1549.32 1440 1554.24 1444.92 1554.24 1451Z" stroke="#EE822F" stroke-width="3.4375" stroke-linejoin="round" stroke-miterlimit="10" fill="#EE822F"/><path d="M1728.24 1438C1728.24 1444.07 1723.32 1449 1717.24 1449 1711.17 1449 1706.24 1444.07 1706.24 1438 1706.24 1431.92 1711.17 1427 1717.24 1427 1723.32 1427 1728.24 1431.92 1728.24 1438Z" stroke="#EE822F" stroke-width="3.4375" stroke-linejoin="round" stroke-miterlimit="10" fill="#EE822F"/><path d="M1901.24 1458C1901.24 1464.07 1896.32 1469 1890.24 1469 1884.17 1469 1879.24 1464.07 1879.24 1458 1879.24 1451.92 1884.17 1447 1890.24 1447 1896.32 1447 1901.24 1451.92 1901.24 1458Z" stroke="#EE822F" stroke-width="3.4375" stroke-linejoin="round" stroke-miterlimit="10" fill="#EE822F"/><path d="M2074.24 1487C2074.24 1493.07 2069.32 1498 2063.24 1498 2057.17 1498 2052.24 1493.07 2052.24 1487 2052.24 1480.92 2057.17 1476 2063.24 1476 2069.32 1476 2074.24 1480.92 2074.24 1487Z" stroke="#EE822F" stroke-width="3.4375" stroke-linejoin="round" stroke-miterlimit="10" fill="#EE822F"/></g><g><text fill="#404040" font-family="Arial,Arial_MSFontService,sans-serif" font-weight="400" font-size="46" transform="matrix(1 0 0 1 1313.21 1127)">73.86</text></g><g><text fill="#404040" font-family="Arial,Arial_MSFontService,sans-serif" font-weight="400" font-size="46" transform="matrix(1 0 0 1 1486.54 1108)">74.63</text></g><g><text fill="#404040" font-family="Arial,Arial_MSFontService,sans-serif" font-weight="400" font-size="46" transform="matrix(1 0 0 1 1659.86 1098)">75.03</text></g><g><text fill="#404040" font-family="Arial,Arial_MSFontService,sans-serif" font-weight="400" font-size="46" transform="matrix(1 0 0 1 1833.19 1112)">74.47</text></g><g><text fill="#404040" font-family="Arial,Arial_MSFontService,sans-serif" font-weight="400" font-size="46" transform="matrix(1 0 0 1 2006.51 1124)">73.98</text></g><g><text fill="#404040" font-family="Arial,Arial_MSFontService,sans-serif" font-weight="400" font-size="46" transform="matrix(1 0 0 1 1313.21 1445)">60.87</text></g><g><text fill="#404040" font-family="Arial,Arial_MSFontService,sans-serif" font-weight="400" font-size="46" transform="matrix(1 0 0 1 1486.54 1409)">62.35</text></g><g><text fill="#404040" font-family="Arial,Arial_MSFontService,sans-serif" font-weight="400" font-size="46" transform="matrix(1 0 0 1 1659.86 1396)">62.89</text></g><g><text fill="#404040" font-family="Arial,Arial_MSFontService,sans-serif" font-weight="400" font-size="46" transform="matrix(1 0 0 1 1833.19 1416)">62.07</text></g><g><text fill="#404040" font-family="Arial,Arial_MSFontService,sans-serif" font-weight="400" font-size="46" transform="matrix(1 0 0 1 2006.51 1444)">60.91</text></g><g><text fill="#595959" font-family="Arial,Arial_MSFontService,sans-serif" font-weight="400" font-size="41" transform="matrix(1 0 0 1 1202.53 1644)">55</text></g><g><text fill="#595959" font-family="Arial,Arial_MSFontService,sans-serif" font-weight="400" font-size="41" transform="matrix(1 0 0 1 1202.53 1521)">60</text></g><g><text fill="#595959" font-family="Arial,Arial_MSFontService,sans-serif" font-weight="400" font-size="41" transform="matrix(1 0 0 1 1202.53 1399)">65</text></g><g><text fill="#595959" font-family="Arial,Arial_MSFontService,sans-serif" font-weight="400" font-size="41" transform="matrix(1 0 0 1 1202.53 1276)">70</text></g><g><text fill="#595959" font-family="Arial,Arial_MSFontService,sans-serif" font-weight="400" font-size="41" transform="matrix(1 0 0 1 1202.53 1153)">75</text></g><g><text fill="#595959" font-family="Arial,Arial_MSFontService,sans-serif" font-weight="400" font-size="41" transform="matrix(1 0 0 1 1202.53 1031)">80</text></g><g><text fill="#595959" font-family="Arial,Arial_MSFontService,sans-serif" font-weight="400" font-size="41" transform="matrix(1 0 0 1 1359.08 1693)">0</text></g><g><text fill="#595959" font-family="Arial,Arial_MSFontService,sans-serif" font-weight="400" font-size="41" transform="matrix(1 0 0 1 1515.21 1693)">0.2</text></g><g><text fill="#595959" font-family="Arial,Arial_MSFontService,sans-serif" font-weight="400" font-size="41" transform="matrix(1 0 0 1 1688.53 1693)">0.5</text></g><g><text fill="#595959" font-family="Arial,Arial_MSFontService,sans-serif" font-weight="400" font-size="41" transform="matrix(1 0 0 1 1861.85 1693)">0.7</text></g><g><text fill="#595959" font-family="Arial,Arial_MSFontService,sans-serif" font-weight="400" font-size="41" transform="matrix(1 0 0 1 2052.38 1693)">1</text></g><g><text fill="#404040" font-family="Microsoft YaHei,Microsoft YaHei_MSFontService,sans-serif" font-weight="700" font-size="64" transform="matrix(1 0 0 1 1302.48 1020)">※</text></g><g><text fill="#404040" font-family="Microsoft YaHei,Microsoft YaHei_MSFontService,sans-serif" font-weight="700" font-size="64" transform="matrix(1 0 0 1 1356.49 1020)">：</text></g><g><text fill="#404040" font-family="Arial,Arial_MSFontService,sans-serif" font-weight="700" font-size="64" transform="matrix(1 0 0 1 1420.66 1020)">DFEW</text></g><g><path d="M1741 977 1829 977" stroke="#4874CB" stroke-width="10.3125" stroke-linecap="round" stroke-linejoin="round" stroke-miterlimit="10" fill="none" fill-rule="evenodd"/></g><g><path d="M1774.56 965.532 1796.56 965.532 1796.56 987.533 1774.56 987.533Z" stroke="#4874CB" stroke-width="3.4375" stroke-linejoin="round" stroke-miterlimit="10" fill="#4874CB"/></g><g><text fill="#595959" font-family="Arial,Arial_MSFontService,sans-serif" font-weight="400" font-size="41" transform="matrix(1 0 0 1 1838.46 989)">WAR</text></g><g><path d="M1974 977 2062 977" stroke="#EE822F" stroke-width="10.3125" stroke-linecap="round" stroke-linejoin="round" stroke-miterlimit="10" fill="none" fill-rule="evenodd"/></g><g><path d="M2029 976C2029 982.075 2024.08 987 2018 987 2011.93 987 2007 982.075 2007 976 2007 969.925 2011.93 965 2018 965 2024.08 965 2029 969.925 2029 976Z" stroke="#EE822F" stroke-width="3.4375" stroke-linejoin="round" stroke-miterlimit="10" fill="#EE822F"/></g><g><text fill="#595959" font-family="Arial,Arial_MSFontService,sans-serif" font-weight="400" font-size="41" transform="matrix(1 0 0 1 2071.6 989)">UAR</text></g><rect x="2197" y="743" width="1028" height="989" fill="#FFFFFF"/><g><path d="M2308.5 1509.55 3174.5 1509.55M2308.5 1386.55 3174.5 1386.55M2308.5 1263.54 3174.5 1263.54M2308.5 1140.54 3174.5 1140.54M2308.5 1018.5 3174.5 1018.5" stroke="#E6E6E6" stroke-width="3.4375" stroke-linejoin="round" stroke-miterlimit="10" fill="none"/></g><g><path d="M2308.5 944.5 2308.5 1631.5M2394.58 944.5 2394.58 1631.5M2481.58 944.5 2481.58 1631.5M2568.58 944.5 2568.58 1631.5M2654.59 944.5 2654.59 1631.5M2741.59 944.5 2741.59 1631.5M2827.59 944.5 2827.59 1631.5M2914.6 944.5 2914.6 1631.5M3001.6 944.5 3001.6 1631.5M3087.6 944.5 3087.6 1631.5M3174.5 944.5 3174.5 1631.5" stroke="#F2F2F2" stroke-width="3.4375" stroke-linejoin="round" stroke-miterlimit="10" fill="none"/></g><g><rect x="2308" y="945" width="866" height="687" stroke="#C00000" stroke-width="8.02083" stroke-linejoin="round" stroke-miterlimit="10" fill="none"/></g><g><path d="M2308.5 1631.5 3174.5 1631.5" stroke="#C00000" stroke-width="3.4375" stroke-linejoin="round" stroke-miterlimit="10" fill="none" fill-rule="evenodd"/></g><g><path d="M2395 1227 2568.08 1208.04 2741.09 1199 2914.1 1201.04 3088 1215.04" stroke="#4874CB" stroke-width="10.3125" stroke-linecap="round" stroke-linejoin="round" stroke-miterlimit="10" fill="none"/></g><g><path d="M2383.62 1216.45 2405.62 1216.45 2405.62 1238.45 2383.62 1238.45Z" stroke="#4874CB" stroke-width="3.4375" stroke-linejoin="round" stroke-miterlimit="10" fill="#4874CB"/><path d="M2557.62 1196.45 2579.62 1196.45 2579.62 1218.45 2557.62 1218.45Z" stroke="#4874CB" stroke-width="3.4375" stroke-linejoin="round" stroke-miterlimit="10" fill="#4874CB"/><path d="M2730.62 1188.45 2752.62 1188.45 2752.62 1210.45 2730.62 1210.45Z" stroke="#4874CB" stroke-width="3.4375" stroke-linejoin="round" stroke-miterlimit="10" fill="#4874CB"/><path d="M2903.62 1189.45 2925.62 1189.45 2925.62 1211.45 2903.62 1211.45Z" stroke="#4874CB" stroke-width="3.4375" stroke-linejoin="round" stroke-miterlimit="10" fill="#4874CB"/><path d="M3076.62 1204.45 3098.62 1204.45 3098.62 1226.45 3076.62 1226.45Z" stroke="#4874CB" stroke-width="3.4375" stroke-linejoin="round" stroke-miterlimit="10" fill="#4874CB"/></g><g><path d="M2395 1427.05 2568.08 1418.05 2741.09 1417 2914.1 1436.05 3088 1451" stroke="#EE822F" stroke-width="10.3125" stroke-linecap="round" stroke-linejoin="round" stroke-miterlimit="10" fill="none"/></g><g><path d="M2405.62 1427.45C2405.62 1433.53 2400.7 1438.45 2394.62 1438.45 2388.55 1438.45 2383.62 1433.53 2383.62 1427.45 2383.62 1421.38 2388.55 1416.45 2394.62 1416.45 2400.7 1416.45 2405.62 1421.38 2405.62 1427.45Z" stroke="#EE822F" stroke-width="3.4375" stroke-linejoin="round" stroke-miterlimit="10" fill="#EE822F"/><path d="M2579.62 1417.45C2579.62 1423.53 2574.7 1428.45 2568.62 1428.45 2562.55 1428.45 2557.62 1423.53 2557.62 1417.45 2557.62 1411.38 2562.55 1406.45 2568.62 1406.45 2574.7 1406.45 2579.62 1411.38 2579.62 1417.45Z" stroke="#EE822F" stroke-width="3.4375" stroke-linejoin="round" stroke-miterlimit="10" fill="#EE822F"/><path d="M2752.62 1416.45C2752.62 1422.53 2747.7 1427.45 2741.62 1427.45 2735.55 1427.45 2730.62 1422.53 2730.62 1416.45 2730.62 1410.38 2735.55 1405.45 2741.62 1405.45 2747.7 1405.45 2752.62 1410.38 2752.62 1416.45Z" stroke="#EE822F" stroke-width="3.4375" stroke-linejoin="round" stroke-miterlimit="10" fill="#EE822F"/><path d="M2925.62 1436.45C2925.62 1442.53 2920.7 1447.45 2914.62 1447.45 2908.55 1447.45 2903.62 1442.53 2903.62 1436.45 2903.62 1430.38 2908.55 1425.45 2914.62 1425.45 2920.7 1425.45 2925.62 1430.38 2925.62 1436.45Z" stroke="#EE822F" stroke-width="3.4375" stroke-linejoin="round" stroke-miterlimit="10" fill="#EE822F"/><path d="M3098.62 1451.45C3098.62 1457.53 3093.7 1462.45 3087.62 1462.45 3081.55 1462.45 3076.62 1457.53 3076.62 1451.45 3076.62 1445.38 3081.55 1440.45 3087.62 1440.45 3093.7 1440.45 3098.62 1445.38 3098.62 1451.45Z" stroke="#EE822F" stroke-width="3.4375" stroke-linejoin="round" stroke-miterlimit="10" fill="#EE822F"/></g><g><text fill="#404040" font-family="Arial,Arial_MSFontService,sans-serif" font-weight="400" font-size="46" transform="matrix(1 0 0 1 2337.55 1185)">51.49</text></g><g><text fill="#404040" font-family="Arial,Arial_MSFontService,sans-serif" font-weight="400" font-size="46" transform="matrix(1 0 0 1 2510.78 1166)">52.28</text></g><g><text fill="#404040" font-family="Arial,Arial_MSFontService,sans-serif" font-weight="400" font-size="46" transform="matrix(1 0 0 1 2684.01 1158)">52.62</text></g><g><text fill="#404040" font-family="Arial,Arial_MSFontService,sans-serif" font-weight="400" font-size="46" transform="matrix(1 0 0 1 2857.24 1159)">52.56</text></g><g><text fill="#404040" font-family="Arial,Arial_MSFontService,sans-serif" font-weight="400" font-size="46" transform="matrix(1 0 0 1 3030.46 1174)">51.97</text></g><g><text fill="#404040" font-family="Arial,Arial_MSFontService,sans-serif" font-weight="400" font-size="46" transform="matrix(1 0 0 1 2337.55 1386)">43.33</text></g><g><text fill="#404040" font-family="Arial,Arial_MSFontService,sans-serif" font-weight="400" font-size="46" transform="matrix(1 0 0 1 2510.78 1376)">43.73</text></g><g><text fill="#404040" font-family="Arial,Arial_MSFontService,sans-serif" font-weight="400" font-size="46" transform="matrix(1 0 0 1 2684.01 1375)">43.77</text></g><g><text fill="#404040" font-family="Arial,Arial_MSFontService,sans-serif" font-weight="400" font-size="46" transform="matrix(1 0 0 1 2857.24 1395)">42.96</text></g><g><text fill="#404040" font-family="Arial,Arial_MSFontService,sans-serif" font-weight="400" font-size="46" transform="matrix(1 0 0 1 3030.46 1409)">42.36</text></g><g><text fill="#595959" font-family="Arial,Arial_MSFontService,sans-serif" font-weight="400" font-size="41" transform="matrix(1 0 0 1 2226.92 1645)">35</text></g><g><text fill="#595959" font-family="Arial,Arial_MSFontService,sans-serif" font-weight="400" font-size="41" transform="matrix(1 0 0 1 2226.92 1522)">40</text></g><g><text fill="#595959" font-family="Arial,Arial_MSFontService,sans-serif" font-weight="400" font-size="41" transform="matrix(1 0 0 1 2226.92 1399)">45</text></g><g><text fill="#595959" font-family="Arial,Arial_MSFontService,sans-serif" font-weight="400" font-size="41" transform="matrix(1 0 0 1 2226.92 1276)">50</text></g><g><text fill="#595959" font-family="Arial,Arial_MSFontService,sans-serif" font-weight="400" font-size="41" transform="matrix(1 0 0 1 2226.92 1154)">55</text></g><g><text fill="#595959" font-family="Arial,Arial_MSFontService,sans-serif" font-weight="400" font-size="41" transform="matrix(1 0 0 1 2226.92 1031)">60</text></g><g><text fill="#595959" font-family="Arial,Arial_MSFontService,sans-serif" font-weight="400" font-size="41" transform="matrix(1 0 0 1 2383.41 1694)">0</text></g><g><text fill="#595959" font-family="Arial,Arial_MSFontService,sans-serif" font-weight="400" font-size="41" transform="matrix(1 0 0 1 2539.45 1694)">0.2</text></g><g><text fill="#595959" font-family="Arial,Arial_MSFontService,sans-serif" font-weight="400" font-size="41" transform="matrix(1 0 0 1 2712.67 1694)">0.5</text></g><g><text fill="#595959" font-family="Arial,Arial_MSFontService,sans-serif" font-weight="400" font-size="41" transform="matrix(1 0 0 1 2885.9 1694)">0.7</text></g><g><text fill="#595959" font-family="Arial,Arial_MSFontService,sans-serif" font-weight="400" font-size="41" transform="matrix(1 0 0 1 3076.33 1694)">1</text></g><g><text fill="#404040" font-family="Microsoft YaHei,Microsoft YaHei_MSFontService,sans-serif" font-weight="700" font-size="64" transform="matrix(1 0 0 1 2318.87 1019)">※</text></g><g><text fill="#404040" font-family="Microsoft YaHei,Microsoft YaHei_MSFontService,sans-serif" font-weight="700" font-size="64" transform="matrix(1 0 0 1 2372.89 1019)">：</text></g><g><text fill="#404040" font-family="Arial,Arial_MSFontService,sans-serif" font-weight="700" font-size="64" transform="matrix(1 0 0 1 2437.05 1019)">FERV39k</text></g><g><path d="M2748 979 2836 979" stroke="#4874CB" stroke-width="10.3125" stroke-linecap="round" stroke-linejoin="round" stroke-miterlimit="10" fill="none" fill-rule="evenodd"/></g><g><path d="M2781.59 968.532 2803.59 968.532 2803.59 990.533 2781.59 990.533Z" stroke="#4874CB" stroke-width="3.4375" stroke-linejoin="round" stroke-miterlimit="10" fill="#4874CB"/></g><g><text fill="#595959" font-family="Arial,Arial_MSFontService,sans-serif" font-weight="400" font-size="41" transform="matrix(1 0 0 1 2845.56 992)">WAR</text></g><g><path d="M2971 979 3059 979" stroke="#EE822F" stroke-width="10.3125" stroke-linecap="round" stroke-linejoin="round" stroke-miterlimit="10" fill="none" fill-rule="evenodd"/></g><g><path d="M3025.02 979.499C3025.02 985.31 3020.31 990.021 3014.5 990.021 3008.69 990.021 3003.98 985.31 3003.98 979.499 3003.98 973.689 3008.69 968.978 3014.5 968.978 3020.31 968.978 3025.02 973.689 3025.02 979.499Z" stroke="#EE822F" stroke-width="3.4375" stroke-linejoin="round" stroke-miterlimit="10" fill="#EE822F"/></g><g><text fill="#595959" font-family="Arial,Arial_MSFontService,sans-serif" font-weight="400" font-size="41" transform="matrix(1 0 0 1 3067.95 992)">UAR</text></g><rect x="2199" y="869" width="94.0002" height="73.9999" fill="#FFFFFF"/><g><text font-family="Arial,Arial_MSFontService,sans-serif" font-weight="700" font-size="50" transform="matrix(1 0 0 1 2215.95 930)">(%)</text></g><g><text font-family="Trebuchet MS,Trebuchet MS_MSFontService,sans-serif" font-weight="400" font-size="83" transform="matrix(1 0 0 1 2136.52 1706)">λ</text></g><rect x="1197" y="744" width="993" height="988" fill="#FFFFFF"/><g><path d="M1308.5 1499.55 2139.5 1499.55M1308.5 1367.55 2139.5 1367.55M1308.5 1235.54 2139.5 1235.54M1308.5 1103.54 2139.5 1103.54M1308.5 971.5 2139.5 971.5" stroke="#E6E6E6" stroke-width="3.4375" stroke-linejoin="round" stroke-miterlimit="10" fill="none"/></g><g><path d="M1412.55 945.5 1412.55 1630.5M1516.55 945.5 1516.55 1630.5M1620.55 945.5 1620.55 1630.5M1723.56 945.5 1723.56 1630.5M1827.56 945.5 1827.56 1630.5M1931.56 945.5 1931.56 1630.5M2035.57 945.5 2035.57 1630.5M2139.5 945.5 2139.5 1630.5" stroke="#F2F2F2" stroke-width="3.4375" stroke-linejoin="round" stroke-miterlimit="10" fill="none"/></g><g><rect x="1308" y="945" width="832" height="686" stroke="#C00000" stroke-width="8.02083" stroke-linejoin="round" stroke-miterlimit="10" fill="none"/></g><g><path d="M0 0 0.000360892 685" stroke="#C00000" stroke-width="3.4375" stroke-linejoin="round" stroke-miterlimit="10" fill="none" fill-rule="evenodd" transform="matrix(1 0 0 -1 1308.5 1630.5)"/></g><g><path d="M1308.5 1630.5 2139.5 1630.5" stroke="#C00000" stroke-width="3.4375" stroke-linejoin="round" stroke-miterlimit="10" fill="none" fill-rule="evenodd"/></g><g><path d="M1412 1273 1620.05 1254 1828.06 1271.04 2036 1256.04" stroke="#4874CB" stroke-width="10.3125" stroke-linecap="round" stroke-linejoin="round" stroke-miterlimit="10" fill="none"/></g><g><path d="M1401.55 1262.03 1423.55 1262.03 1423.55 1284.03 1401.55 1284.03Z" stroke="#4874CB" stroke-width="3.4375" stroke-linejoin="round" stroke-miterlimit="10" fill="#4874CB"/><path d="M1609.55 1242.03 1631.55 1242.03 1631.55 1264.03 1609.55 1264.03Z" stroke="#4874CB" stroke-width="3.4375" stroke-linejoin="round" stroke-miterlimit="10" fill="#4874CB"/><path d="M1816.55 1259.03 1838.55 1259.03 1838.55 1281.03 1816.55 1281.03Z" stroke="#4874CB" stroke-width="3.4375" stroke-linejoin="round" stroke-miterlimit="10" fill="#4874CB"/><path d="M2024.55 1244.03 2046.55 1244.03 2046.55 1266.03 2024.55 1266.03Z" stroke="#4874CB" stroke-width="3.4375" stroke-linejoin="round" stroke-miterlimit="10" fill="#4874CB"/></g><g><path d="M1412 1493.05 1620.05 1485 1828.06 1515.05 2036 1547" stroke="#EE822F" stroke-width="10.3125" stroke-linecap="round" stroke-linejoin="round" stroke-miterlimit="10" fill="none"/></g><g><path d="M1423.55 1493.03C1423.55 1499.11 1418.63 1504.03 1412.55 1504.03 1406.48 1504.03 1401.55 1499.11 1401.55 1493.03 1401.55 1486.96 1406.48 1482.03 1412.55 1482.03 1418.63 1482.03 1423.55 1486.96 1423.55 1493.03Z" stroke="#EE822F" stroke-width="3.4375" stroke-linejoin="round" stroke-miterlimit="10" fill="#EE822F"/><path d="M1631.55 1484.03C1631.55 1490.11 1626.63 1495.03 1620.55 1495.03 1614.48 1495.03 1609.55 1490.11 1609.55 1484.03 1609.55 1477.96 1614.48 1473.03 1620.55 1473.03 1626.63 1473.03 1631.55 1477.96 1631.55 1484.03Z" stroke="#EE822F" stroke-width="3.4375" stroke-linejoin="round" stroke-miterlimit="10" fill="#EE822F"/><path d="M1838.55 1514.03C1838.55 1520.11 1833.63 1525.03 1827.55 1525.03 1821.48 1525.03 1816.55 1520.11 1816.55 1514.03 1816.55 1507.96 1821.48 1503.03 1827.55 1503.03 1833.63 1503.03 1838.55 1507.96 1838.55 1514.03Z" stroke="#EE822F" stroke-width="3.4375" stroke-linejoin="round" stroke-miterlimit="10" fill="#EE822F"/><path d="M2046.55 1547.03C2046.55 1553.11 2041.63 1558.03 2035.55 1558.03 2029.48 1558.03 2024.55 1553.11 2024.55 1547.03 2024.55 1540.96 2029.48 1536.03 2035.55 1536.03 2041.63 1536.03 2046.55 1540.96 2046.55 1547.03Z" stroke="#EE822F" stroke-width="3.4375" stroke-linejoin="round" stroke-miterlimit="10" fill="#EE822F"/></g><g><text fill="#404040" font-family="Arial,Arial_MSFontService,sans-serif" font-weight="400" font-size="46" transform="matrix(1 0 0 1 1354.82 1232)">78.56</text></g><g><text fill="#404040" font-family="Arial,Arial_MSFontService,sans-serif" font-weight="400" font-size="46" transform="matrix(1 0 0 1 1562.73 1212)">79.31</text></g><g><text fill="#404040" font-family="Arial,Arial_MSFontService,sans-serif" font-weight="400" font-size="46" transform="matrix(1 0 0 1 1770.64 1229)">78.65</text></g><g><text fill="#404040" font-family="Arial,Arial_MSFontService,sans-serif" font-weight="400" font-size="46" transform="matrix(1 0 0 1 1978.55 1214)">79.22</text></g><g><text fill="#404040" font-family="Arial,Arial_MSFontService,sans-serif" font-weight="400" font-size="46" transform="matrix(1 0 0 1 1354.82 1451)">70.23</text></g><g><text fill="#404040" font-family="Arial,Arial_MSFontService,sans-serif" font-weight="400" font-size="46" transform="matrix(1 0 0 1 1562.73 1443)">70.55</text></g><g><text fill="#404040" font-family="Arial,Arial_MSFontService,sans-serif" font-weight="400" font-size="46" transform="matrix(1 0 0 1 1770.64 1473)">69.41</text></g><g><text fill="#404040" font-family="Arial,Arial_MSFontService,sans-serif" font-weight="400" font-size="46" transform="matrix(1 0 0 1 1978.55 1506)">68.17</text></g><g><text fill="#595959" font-family="Arial,Arial_MSFontService,sans-serif" font-weight="400" font-size="41" transform="matrix(1 0 0 1 1226.84 1644)">65</text></g><g><text fill="#595959" font-family="Arial,Arial_MSFontService,sans-serif" font-weight="400" font-size="41" transform="matrix(1 0 0 1 1226.84 1512)">70</text></g><g><text fill="#595959" font-family="Arial,Arial_MSFontService,sans-serif" font-weight="400" font-size="41" transform="matrix(1 0 0 1 1226.84 1380)">75</text></g><g><text fill="#595959" font-family="Arial,Arial_MSFontService,sans-serif" font-weight="400" font-size="41" transform="matrix(1 0 0 1 1226.84 1248)">80</text></g><g><text fill="#595959" font-family="Arial,Arial_MSFontService,sans-serif" font-weight="400" font-size="41" transform="matrix(1 0 0 1 1226.84 1116)">85</text></g><g><text fill="#595959" font-family="Arial,Arial_MSFontService,sans-serif" font-weight="400" font-size="41" transform="matrix(1 0 0 1 1226.84 984)">90</text></g><g><text fill="#595959" font-family="Arial,Arial_MSFontService,sans-serif" font-weight="400" font-size="41" transform="matrix(1 0 0 1 1400.68 1693)">4</text></g><g><text fill="#595959" font-family="Arial,Arial_MSFontService,sans-serif" font-weight="400" font-size="41" transform="matrix(1 0 0 1 1608.6 1693)">8</text></g><g><text fill="#595959" font-family="Arial,Arial_MSFontService,sans-serif" font-weight="400" font-size="41" transform="matrix(1 0 0 1 1805.04 1693)">12</text></g><g><text fill="#595959" font-family="Arial,Arial_MSFontService,sans-serif" font-weight="400" font-size="41" transform="matrix(1 0 0 1 2012.95 1693)">16</text></g><g><text fill="#404040" font-family="Microsoft YaHei,Microsoft YaHei_MSFontService,sans-serif" font-weight="700" font-size="64" transform="matrix(1 0 0 1 1319.77 1035)">※</text></g><g><text fill="#404040" font-family="Microsoft YaHei,Microsoft YaHei_MSFontService,sans-serif" font-weight="700" font-size="64" transform="matrix(1 0 0 1 1373.79 1035)">：</text></g><g><text fill="#404040" font-family="Arial,Arial_MSFontService,sans-serif" font-weight="700" font-size="64" transform="matrix(1 0 0 1 1437.96 1035)">DFEW</text></g><g><path d="M1695 980 1783 980" stroke="#4874CB" stroke-width="10.3125" stroke-linecap="round" stroke-linejoin="round" stroke-miterlimit="10" fill="none" fill-rule="evenodd"/></g><g><path d="M1727.56 968.532 1749.56 968.532 1749.56 990.533 1727.56 990.533Z" stroke="#4874CB" stroke-width="3.4375" stroke-linejoin="round" stroke-miterlimit="10" fill="#4874CB"/></g><g><text fill="#595959" font-family="Arial,Arial_MSFontService,sans-serif" font-weight="400" font-size="41" transform="matrix(1 0 0 1 1792.14 993)">WAR</text></g><g><path d="M1928 980 2016 980" stroke="#EE822F" stroke-width="10.3125" stroke-linecap="round" stroke-linejoin="round" stroke-miterlimit="10" fill="none" fill-rule="evenodd"/></g><g><path d="M1982 979.499C1982 985.31 1977.07 990.021 1971 990.021 1964.92 990.021 1960 985.31 1960 979.499 1960 973.689 1964.92 968.978 1971 968.978 1977.07 968.978 1982 973.689 1982 979.499Z" stroke="#EE822F" stroke-width="3.4375" stroke-linejoin="round" stroke-miterlimit="10" fill="#EE822F"/></g><g><text fill="#595959" font-family="Arial,Arial_MSFontService,sans-serif" font-weight="400" font-size="41" transform="matrix(1 0 0 1 2025.28 993)">UAR</text></g><rect x="2199" y="743" width="993" height="988" fill="#FFFFFF"/><g><path d="M2310.5 1467.55 3141.5 1467.55M2310.5 1304.54 3141.5 1304.54M2310.5 1140.54 3141.5 1140.54M2310.5 977.5 3141.5 977.5" stroke="#E6E6E6" stroke-width="3.4375" stroke-linejoin="round" stroke-miterlimit="10" fill="none"/></g><g><path d="M2414.58 945.5 2414.58 1630.5M2518.58 945.5 2518.58 1630.5M2621.59 945.5 2621.59 1630.5M2725.59 945.5 2725.59 1630.5M2829.59 945.5 2829.59 1630.5M2933.6 945.5 2933.6 1630.5M3037.6 945.5 3037.6 1630.5M3141.5 945.5 3141.5 1630.5" stroke="#F2F2F2" stroke-width="3.4375" stroke-linejoin="round" stroke-miterlimit="10" fill="none"/></g><g><rect x="2310" y="945" width="831" height="686" stroke="#C00000" stroke-width="8.02083" stroke-linejoin="round" stroke-miterlimit="10" fill="none"/></g><g><path d="M0 0 0.000360892 685" stroke="#C00000" stroke-width="3.4375" stroke-linejoin="round" stroke-miterlimit="10" fill="none" fill-rule="evenodd" transform="matrix(1 0 0 -1 2310.5 1630.5)"/></g><g><path d="M2310.5 1630.5 3141.5 1630.5" stroke="#C00000" stroke-width="3.4375" stroke-linejoin="round" stroke-miterlimit="10" fill="none" fill-rule="evenodd"/></g><g><path d="M2414 1195.04 2622.09 1181 2830.09 1200.04 3037 1207" stroke="#4874CB" stroke-width="10.3125" stroke-linecap="round" stroke-linejoin="round" stroke-miterlimit="10" fill="none"/></g><g><path d="M2403.7 1184.8 2425.7 1184.8 2425.7 1206.8 2403.7 1206.8Z" stroke="#4874CB" stroke-width="3.4375" stroke-linejoin="round" stroke-miterlimit="10" fill="#4874CB"/><path d="M2610.7 1169.8 2632.7 1169.8 2632.7 1191.8 2610.7 1191.8Z" stroke="#4874CB" stroke-width="3.4375" stroke-linejoin="round" stroke-miterlimit="10" fill="#4874CB"/><path d="M2818.7 1189.8 2840.7 1189.8 2840.7 1211.8 2818.7 1211.8Z" stroke="#4874CB" stroke-width="3.4375" stroke-linejoin="round" stroke-miterlimit="10" fill="#4874CB"/><path d="M3026.7 1195.8 3048.7 1195.8 3048.7 1217.8 3026.7 1217.8Z" stroke="#4874CB" stroke-width="3.4375" stroke-linejoin="round" stroke-miterlimit="10" fill="#4874CB"/></g><g><path d="M2414 1522.05 2622.09 1519 2830.09 1540 3037 1529.05" stroke="#EE822F" stroke-width="10.3125" stroke-linecap="round" stroke-linejoin="round" stroke-miterlimit="10" fill="none"/></g><g><path d="M2425.7 1522.8C2425.7 1528.88 2420.77 1533.8 2414.7 1533.8 2408.62 1533.8 2403.7 1528.88 2403.7 1522.8 2403.7 1516.73 2408.62 1511.8 2414.7 1511.8 2420.77 1511.8 2425.7 1516.73 2425.7 1522.8Z" stroke="#EE822F" stroke-width="3.4375" stroke-linejoin="round" stroke-miterlimit="10" fill="#EE822F"/><path d="M2632.7 1519.8C2632.7 1525.88 2627.77 1530.8 2621.7 1530.8 2615.62 1530.8 2610.7 1525.88 2610.7 1519.8 2610.7 1513.73 2615.62 1508.8 2621.7 1508.8 2627.77 1508.8 2632.7 1513.73 2632.7 1519.8Z" stroke="#EE822F" stroke-width="3.4375" stroke-linejoin="round" stroke-miterlimit="10" fill="#EE822F"/><path d="M2840.7 1539.8C2840.7 1545.88 2835.77 1550.8 2829.7 1550.8 2823.62 1550.8 2818.7 1545.88 2818.7 1539.8 2818.7 1533.73 2823.62 1528.8 2829.7 1528.8 2835.77 1528.8 2840.7 1533.73 2840.7 1539.8Z" stroke="#EE822F" stroke-width="3.4375" stroke-linejoin="round" stroke-miterlimit="10" fill="#EE822F"/><path d="M3048.7 1528.8C3048.7 1534.88 3043.77 1539.8 3037.7 1539.8 3031.62 1539.8 3026.7 1534.88 3026.7 1528.8 3026.7 1522.73 3031.62 1517.8 3037.7 1517.8 3043.77 1517.8 3048.7 1522.73 3048.7 1528.8Z" stroke="#EE822F" stroke-width="3.4375" stroke-linejoin="round" stroke-miterlimit="10" fill="#EE822F"/></g><g><text fill="#404040" font-family="Arial,Arial_MSFontService,sans-serif" font-weight="400" font-size="46" transform="matrix(1 0 0 1 2356.88 1153)">53.34</text></g><g><text fill="#404040" font-family="Arial,Arial_MSFontService,sans-serif" font-weight="400" font-size="46" transform="matrix(1 0 0 1 2564.62 1139)">53.78</text></g><g><text fill="#404040" font-family="Arial,Arial_MSFontService,sans-serif" font-weight="400" font-size="46" transform="matrix(1 0 0 1 2772.36 1158)">53.19</text></g><g><text fill="#404040" font-family="Arial,Arial_MSFontService,sans-serif" font-weight="400" font-size="46" transform="matrix(1 0 0 1 2980.09 1165)">52.98</text></g><g><text fill="#404040" font-family="Arial,Arial_MSFontService,sans-serif" font-weight="400" font-size="46" transform="matrix(1 0 0 1 2356.88 1480)">43.33</text></g><g><text fill="#404040" font-family="Arial,Arial_MSFontService,sans-serif" font-weight="400" font-size="46" transform="matrix(1 0 0 1 2564.62 1478)">43.41</text></g><g><text fill="#404040" font-family="Arial,Arial_MSFontService,sans-serif" font-weight="400" font-size="46" transform="matrix(1 0 0 1 2772.36 1498)">42.79</text></g><g><text fill="#404040" font-family="Arial,Arial_MSFontService,sans-serif" font-weight="400" font-size="46" transform="matrix(1 0 0 1 2980.09 1487)">43.12</text></g><g><text fill="#595959" font-family="Arial,Arial_MSFontService,sans-serif" font-weight="400" font-size="41" transform="matrix(1 0 0 1 2228.99 1643)">40</text></g><g><text fill="#595959" font-family="Arial,Arial_MSFontService,sans-serif" font-weight="400" font-size="41" transform="matrix(1 0 0 1 2228.99 1480)">45</text></g><g><text fill="#595959" font-family="Arial,Arial_MSFontService,sans-serif" font-weight="400" font-size="41" transform="matrix(1 0 0 1 2228.99 1317)">50</text></g><g><text fill="#595959" font-family="Arial,Arial_MSFontService,sans-serif" font-weight="400" font-size="41" transform="matrix(1 0 0 1 2228.99 1154)">55</text></g><g><text fill="#595959" font-family="Arial,Arial_MSFontService,sans-serif" font-weight="400" font-size="41" transform="matrix(1 0 0 1 2228.99 990)">60</text></g><g><text fill="#595959" font-family="Arial,Arial_MSFontService,sans-serif" font-weight="400" font-size="41" transform="matrix(1 0 0 1 2402.74 1693)">4</text></g><g><text fill="#595959" font-family="Arial,Arial_MSFontService,sans-serif" font-weight="400" font-size="41" transform="matrix(1 0 0 1 2610.48 1693)">8</text></g><g><text fill="#595959" font-family="Arial,Arial_MSFontService,sans-serif" font-weight="400" font-size="41" transform="matrix(1 0 0 1 2806.75 1693)">12</text></g><g><text fill="#595959" font-family="Arial,Arial_MSFontService,sans-serif" font-weight="400" font-size="41" transform="matrix(1 0 0 1 3014.49 1693)">16</text></g><g><text fill="#404040" font-family="Microsoft YaHei,Microsoft YaHei_MSFontService,sans-serif" font-weight="700" font-size="64" transform="matrix(1 0 0 1 2320.24 1040)">※</text></g><g><text fill="#404040" font-family="Microsoft YaHei,Microsoft YaHei_MSFontService,sans-serif" font-weight="700" font-size="64" transform="matrix(1 0 0 1 2374.26 1040)">：</text></g><g><text fill="#404040" font-family="Arial,Arial_MSFontService,sans-serif" font-weight="700" font-size="64" transform="matrix(1 0 0 1 2438.43 1040)">FERV39k</text></g><g><path d="M2693 980 2781 980" stroke="#4874CB" stroke-width="10.3125" stroke-linecap="round" stroke-linejoin="round" stroke-miterlimit="10" fill="none" fill-rule="evenodd"/></g><g><path d="M2725.59 969.532 2747.59 969.532 2747.59 991.533 2725.59 991.533Z" stroke="#4874CB" stroke-width="3.4375" stroke-linejoin="round" stroke-miterlimit="10" fill="#4874CB"/></g><g><text fill="#595959" font-family="Arial,Arial_MSFontService,sans-serif" font-weight="400" font-size="41" transform="matrix(1 0 0 1 2790.15 993)">WAR</text></g><g><path d="M2926 980 3014 980" stroke="#EE822F" stroke-width="10.3125" stroke-linecap="round" stroke-linejoin="round" stroke-miterlimit="10" fill="none" fill-rule="evenodd"/></g><g><path d="M2981.02 979.999C2981.02 986.075 2976.31 990.999 2970.5 990.999 2964.69 990.999 2959.98 986.075 2959.98 979.999 2959.98 973.924 2964.69 969 2970.5 969 2976.31 969 2981.02 973.924 2981.02 979.999Z" stroke="#EE822F" stroke-width="3.4375" stroke-linejoin="round" stroke-miterlimit="10" fill="#EE822F"/></g><g><text fill="#595959" font-family="Arial,Arial_MSFontService,sans-serif" font-weight="400" font-size="41" transform="matrix(1 0 0 1 3023.29 993)">UAR</text></g><rect x="1213" y="846" width="92.9998" height="73.9999" fill="#FFFFFF"/><text font-family="Arial,Arial_MSFontService,sans-serif" font-weight="700" font-size="50" transform="matrix(1 0 0 1 1229.59 906)">(%)</text><rect x="2211" y="848" width="92.0002" height="73.9999" fill="#FFFFFF"/><text font-family="Arial,Arial_MSFontService,sans-serif" font-weight="700" font-size="50" transform="matrix(1 0 0 1 2227.39 909)">(%)</text><text font-family="Arial,Arial_MSFontService,sans-serif" font-weight="700" font-size="50" transform="matrix(1 0 0 1 3120.26 1691)">n</text><text font-family="Arial,Arial_MSFontService,sans-serif" font-weight="700" font-size="50" transform="matrix(1 0 0 1 2120.33 1690)">n</text></g></svg>