<svg width="1028" height="989" xmlns="http://www.w3.org/2000/svg" xmlns:xlink="http://www.w3.org/1999/xlink" xml:space="preserve" overflow="hidden"><defs><clipPath id="clip0"><rect x="1173" y="743" width="1028" height="989"/></clipPath></defs><g clip-path="url(#clip0)" transform="translate(-1173 -743)"><rect x="1173" y="743" width="1028" height="989" fill="#FFFFFF"/><g><path d="M1282.5 1503.55 2150.5 1503.55M1282.5 1382.55 2150.5 1382.55M1282.5 1260.54 2150.5 1260.54M1282.5 1138.54 2150.5 1138.54M1282.5 1017.5 2150.5 1017.5" stroke="#E6E6E6" stroke-width="3.4375" stroke-linejoin="round" stroke-miterlimit="10" fill="none"/></g><g><path d="M1282.5 944.5 1282.5 1625.5M1369.55 944.5 1369.55 1625.5M1456.55 944.5 1456.55 1625.5M1542.55 944.5 1542.55 1625.5M1629.55 944.5 1629.55 1625.5M1716.56 944.5 1716.56 1625.5M1803.56 944.5 1803.56 1625.5M1890.56 944.5 1890.56 1625.5M1976.56 944.5 1976.56 1625.5M2063.57 944.5 2063.57 1625.5M2150.5 944.5 2150.5 1625.5" stroke="#F2F2F2" stroke-width="3.4375" stroke-linejoin="round" stroke-miterlimit="10" fill="none"/></g><g><rect x="1283" y="944" width="868" height="682" stroke="#C00000" stroke-width="8.02083" stroke-linejoin="round" stroke-miterlimit="10" fill="none"/></g><g><path d="M1282.5 1625.5 2150.5 1625.5" stroke="#C00000" stroke-width="3.4375" stroke-linejoin="round" stroke-miterlimit="10" fill="none" fill-rule="evenodd"/></g><g><path d="M1369 1167 1543.05 1148.04 1716.06 1138 1890.06 1152.04 2064 1164.04" stroke="#4874CB" stroke-width="10.3125" stroke-linecap="round" stroke-linejoin="round" stroke-miterlimit="10" fill="none"/></g><g><path d="M1358.24 1156 1380.24 1156 1380.24 1178 1358.24 1178Z" stroke="#4874CB" stroke-width="3.4375" stroke-linejoin="round" stroke-miterlimit="10" fill="#4874CB"/><path d="M1531.24 1137 1553.24 1137 1553.24 1159 1531.24 1159Z" stroke="#4874CB" stroke-width="3.4375" stroke-linejoin="round" stroke-miterlimit="10" fill="#4874CB"/><path d="M1705.24 1128 1727.24 1128 1727.24 1150 1705.24 1150Z" stroke="#4874CB" stroke-width="3.4375" stroke-linejoin="round" stroke-miterlimit="10" fill="#4874CB"/><path d="M1879.24 1141 1901.24 1141 1901.24 1163 1879.24 1163Z" stroke="#4874CB" stroke-width="3.4375" stroke-linejoin="round" stroke-miterlimit="10" fill="#4874CB"/><path d="M2052.24 1153 2074.24 1153 2074.24 1175 2052.24 1175Z" stroke="#4874CB" stroke-width="3.4375" stroke-linejoin="round" stroke-miterlimit="10" fill="#4874CB"/></g><g><path d="M1369 1483 1543.05 1447.05 1716.06 1434 1890.06 1454.05 2064 1482.05" stroke="#EE822F" stroke-width="10.3125" stroke-linecap="round" stroke-linejoin="round" stroke-miterlimit="10" fill="none"/></g><g><path d="M1380.24 1483C1380.24 1489.07 1375.32 1494 1369.24 1494 1363.17 1494 1358.24 1489.07 1358.24 1483 1358.24 1476.92 1363.17 1472 1369.24 1472 1375.32 1472 1380.24 1476.92 1380.24 1483Z" stroke="#EE822F" stroke-width="3.4375" stroke-linejoin="round" stroke-miterlimit="10" fill="#EE822F"/><path d="M1553.24 1447C1553.24 1453.07 1548.32 1458 1542.24 1458 1536.17 1458 1531.24 1453.07 1531.24 1447 1531.24 1440.92 1536.17 1436 1542.24 1436 1548.32 1436 1553.24 1440.92 1553.24 1447Z" stroke="#EE822F" stroke-width="3.4375" stroke-linejoin="round" stroke-miterlimit="10" fill="#EE822F"/><path d="M1727.24 1434C1727.24 1440.07 1722.32 1445 1716.24 1445 1710.17 1445 1705.24 1440.07 1705.24 1434 1705.24 1427.92 1710.17 1423 1716.24 1423 1722.32 1423 1727.24 1427.92 1727.24 1434Z" stroke="#EE822F" stroke-width="3.4375" stroke-linejoin="round" stroke-miterlimit="10" fill="#EE822F"/><path d="M1901.24 1454C1901.24 1460.07 1896.32 1465 1890.24 1465 1884.17 1465 1879.24 1460.07 1879.24 1454 1879.24 1447.92 1884.17 1443 1890.24 1443 1896.32 1443 1901.24 1447.92 1901.24 1454Z" stroke="#EE822F" stroke-width="3.4375" stroke-linejoin="round" stroke-miterlimit="10" fill="#EE822F"/><path d="M2074.24 1482C2074.24 1488.07 2069.32 1493 2063.24 1493 2057.17 1493 2052.24 1488.07 2052.24 1482 2052.24 1475.92 2057.17 1471 2063.24 1471 2069.32 1471 2074.24 1475.92 2074.24 1482Z" stroke="#EE822F" stroke-width="3.4375" stroke-linejoin="round" stroke-miterlimit="10" fill="#EE822F"/></g><g><text fill="#404040" font-family="Calibri,Calibri_MSFontService,sans-serif" font-weight="400" font-size="46" transform="matrix(1 0 0 1 1317.13 1123)">73.86</text></g><g><text fill="#404040" font-family="Calibri,Calibri_MSFontService,sans-serif" font-weight="400" font-size="46" transform="matrix(1 0 0 1 1490.71 1104)">74.63</text></g><g><text fill="#404040" font-family="Calibri,Calibri_MSFontService,sans-serif" font-weight="400" font-size="46" transform="matrix(1 0 0 1 1664.29 1094)">75.03</text></g><g><text fill="#404040" font-family="Calibri,Calibri_MSFontService,sans-serif" font-weight="400" font-size="46" transform="matrix(1 0 0 1 1837.88 1108)">74.47</text></g><g><text fill="#404040" font-family="Calibri,Calibri_MSFontService,sans-serif" font-weight="400" font-size="46" transform="matrix(1 0 0 1 2011.46 1120)">73.98</text></g><g><text fill="#404040" font-family="Calibri,Calibri_MSFontService,sans-serif" font-weight="400" font-size="46" transform="matrix(1 0 0 1 1317.13 1439)">60.87</text></g><g><text fill="#404040" font-family="Calibri,Calibri_MSFontService,sans-serif" font-weight="400" font-size="46" transform="matrix(1 0 0 1 1490.71 1403)">62.35</text></g><g><text fill="#404040" font-family="Calibri,Calibri_MSFontService,sans-serif" font-weight="400" font-size="46" transform="matrix(1 0 0 1 1664.29 1390)">62.89</text></g><g><text fill="#404040" font-family="Calibri,Calibri_MSFontService,sans-serif" font-weight="400" font-size="46" transform="matrix(1 0 0 1 1837.88 1410)">62.07</text></g><g><text fill="#404040" font-family="Calibri,Calibri_MSFontService,sans-serif" font-weight="400" font-size="46" transform="matrix(1 0 0 1 2011.46 1438)">60.91</text></g><g><text fill="#595959" font-family="Calibri,Calibri_MSFontService,sans-serif" font-weight="400" font-size="41" transform="matrix(1 0 0 1 1202.53 1637)">55</text></g><g><text fill="#595959" font-family="Calibri,Calibri_MSFontService,sans-serif" font-weight="400" font-size="41" transform="matrix(1 0 0 1 1202.53 1516)">60</text></g><g><text fill="#595959" font-family="Calibri,Calibri_MSFontService,sans-serif" font-weight="400" font-size="41" transform="matrix(1 0 0 1 1202.53 1394)">65</text></g><g><text fill="#595959" font-family="Calibri,Calibri_MSFontService,sans-serif" font-weight="400" font-size="41" transform="matrix(1 0 0 1 1202.53 1272)">70</text></g><g><text fill="#595959" font-family="Calibri,Calibri_MSFontService,sans-serif" font-weight="400" font-size="41" transform="matrix(1 0 0 1 1202.53 1151)">75</text></g><g><text fill="#595959" font-family="Calibri,Calibri_MSFontService,sans-serif" font-weight="400" font-size="41" transform="matrix(1 0 0 1 1202.53 1029)">80</text></g><g><text fill="#595959" font-family="Calibri,Calibri_MSFontService,sans-serif" font-weight="400" font-size="41" transform="matrix(1 0 0 1 1358.94 1691)">0</text></g><g><text fill="#595959" font-family="Calibri,Calibri_MSFontService,sans-serif" font-weight="400" font-size="41" transform="matrix(1 0 0 1 1516.87 1691)">0.2</text></g><g><text fill="#595959" font-family="Calibri,Calibri_MSFontService,sans-serif" font-weight="400" font-size="41" transform="matrix(1 0 0 1 1690.45 1691)">0.5</text></g><g><text fill="#595959" font-family="Calibri,Calibri_MSFontService,sans-serif" font-weight="400" font-size="41" transform="matrix(1 0 0 1 1864.04 1691)">0.7</text></g><g><text fill="#595959" font-family="Calibri,Calibri_MSFontService,sans-serif" font-weight="400" font-size="41" transform="matrix(1 0 0 1 2053.27 1691)">1</text></g><g><text fill="#404040" font-family="Microsoft YaHei,Microsoft YaHei_MSFontService,sans-serif" font-weight="700" font-size="64" transform="matrix(1 0 0 1 1302.48 1020)">※</text></g><g><text fill="#404040" font-family="SimSun,SimSun_MSFontService,sans-serif" font-weight="700" font-size="64" transform="matrix(1 0 0 1 1356.49 1020)">：</text></g><g><text fill="#404040" font-family="Calibri,Calibri_MSFontService,sans-serif" font-weight="700" font-size="64" transform="matrix(1 0 0 1 1420.91 1020)">DFEW</text></g><g><path d="M1739 979 1827 979" stroke="#4874CB" stroke-width="10.3125" stroke-linecap="round" stroke-linejoin="round" stroke-miterlimit="10" fill="none" fill-rule="evenodd"/></g><g><path d="M1772.56 967.532 1794.56 967.532 1794.56 989.533 1772.56 989.533Z" stroke="#4874CB" stroke-width="3.4375" stroke-linejoin="round" stroke-miterlimit="10" fill="#4874CB"/></g><g><text fill="#595959" font-family="Calibri,Calibri_MSFontService,sans-serif" font-weight="400" font-size="41" transform="matrix(1 0 0 1 1836.61 990)">WAR</text></g><g><path d="M1957 979 2045 979" stroke="#EE822F" stroke-width="10.3125" stroke-linecap="round" stroke-linejoin="round" stroke-miterlimit="10" fill="none" fill-rule="evenodd"/></g><g><path d="M2012 978C2012 984.075 2007.08 989 2001 989 1994.93 989 1990 984.075 1990 978 1990 971.925 1994.93 967 2001 967 2007.08 967 2012 971.925 2012 978Z" stroke="#EE822F" stroke-width="3.4375" stroke-linejoin="round" stroke-miterlimit="10" fill="#EE822F"/></g><g><text fill="#595959" font-family="Calibri,Calibri_MSFontService,sans-serif" font-weight="400" font-size="41" transform="matrix(1 0 0 1 2054.62 990)">UAR</text></g></g></svg>